<svg width="440" height="530" viewBox="0 0 440 530" fill="none" xmlns="http://www.w3.org/2000/svg">
<path d="M139.406 537.264C139.406 523.764 178.81 520.901 194.373 520.901C225.957 520.901 228.059 505.52 254.274 505.52C277.32 505.52 289.05 521.392 310.527 521.392C356.618 521.392 366.877 476.259 411.694 476.259C457.284 476.259 454.964 523.375 497.396 523.375C518.971 523.375 648.586 526.85 648.586 537.274L139.406 537.264Z" fill="#CCDCF9"/>
<path d="M229.092 309C289.793 309 339 259.751 339 199C339 138.249 289.793 89 229.092 89C168.392 89 119.185 138.249 119.185 199C119.185 259.751 168.392 309 229.092 309Z" fill="#91B4F2" fill-opacity="0.51"/>
<path d="M290.089 151.044H222.694V255.494H290.089V151.044Z" fill="white"/>
<path d="M209.187 214.796H278.288" stroke="black" stroke-miterlimit="10"/>
<path d="M209.187 221.626H278.288" stroke="black" stroke-miterlimit="10"/>
<path d="M209.187 228.457H278.288" stroke="black" stroke-miterlimit="10"/>
<path d="M209.187 235.287H278.288" stroke="black" stroke-miterlimit="10"/>
<path d="M256.392 199.142C266.129 199.142 274.023 191.242 274.023 181.497C274.023 171.751 266.129 163.851 256.392 163.851C246.655 163.851 238.761 171.751 238.761 181.497C238.761 191.242 246.655 199.142 256.392 199.142Z" fill="#F2F2F2"/>
<path opacity="0.7" d="M306.156 188.185H278.288V214.084H306.156V188.185Z" fill="#06369A"/>
<path d="M289.829 213.975L300.256 218.189V221.454L286.631 215.141V212.709L300.256 206.413V209.677L289.829 213.975ZM288.38 266.784H285.731L295.858 240.45H298.49L288.38 266.784ZM298.673 293.875L287.663 289.561V286.396L301.888 292.692V295.124L287.663 301.437V298.239L298.673 293.875Z" fill="white"/>
<path d="M256.676 99.6729H106.246V198.716H256.676V99.6729Z" stroke="black" stroke-miterlimit="10"/>
<path d="M106.246 104.938H256.676" stroke="black" stroke-miterlimit="10"/>
<path d="M162.409 113.761H117.195V159.013H162.409V113.761Z" stroke="black" stroke-miterlimit="10"/>
<path d="M171.082 117.745H240.183" stroke="black" stroke-miterlimit="10"/>
<path d="M171.082 124.576H240.183" stroke="black" stroke-miterlimit="10"/>
<path d="M171.082 131.406H240.183" stroke="black" stroke-miterlimit="10"/>
<path d="M171.082 138.237H240.183" stroke="black" stroke-miterlimit="10"/>
<path opacity="0.44" d="M139.802 125.714L127.489 147.06H152.115L139.802 125.714Z" fill="#06369A"/>
<path d="M109.517 103.657C110.223 103.657 110.796 103.084 110.796 102.377C110.796 101.669 110.223 101.096 109.517 101.096C108.81 101.096 108.237 101.669 108.237 102.377C108.237 103.084 108.81 103.657 109.517 103.657Z" fill="#7F7B81"/>
<path d="M113.924 103.657C114.631 103.657 115.204 103.084 115.204 102.377C115.204 101.669 114.631 101.096 113.924 101.096C113.218 101.096 112.645 101.669 112.645 102.377C112.645 103.084 113.218 103.657 113.924 103.657Z" fill="#91B4F2"/>
<path d="M118.332 103.657C119.039 103.657 119.612 103.084 119.612 102.377C119.612 101.669 119.039 101.096 118.332 101.096C117.625 101.096 117.052 101.669 117.052 102.377C117.052 103.084 117.625 103.657 118.332 103.657Z" fill="#06369A"/>
<path d="M172.504 180.429L176.769 176.658H172.418L172.504 180.429Z" fill="#7F7B81"/>
<path d="M195.344 162.571H174.119C170.871 162.571 168.238 165.206 168.238 168.456V171.2C168.238 174.45 170.871 177.085 174.119 177.085H195.344C198.592 177.085 201.225 174.45 201.225 171.2V168.456C201.225 165.206 198.592 162.571 195.344 162.571Z" fill="#7F7B81"/>
<path d="M180.324 171.109C181.031 171.109 181.604 170.535 181.604 169.828C181.604 169.121 181.031 168.547 180.324 168.547C179.617 168.547 179.044 169.121 179.044 169.828C179.044 170.535 179.617 171.109 180.324 171.109Z" fill="white"/>
<path d="M184.732 171.109C185.438 171.109 186.011 170.535 186.011 169.828C186.011 169.121 185.438 168.547 184.732 168.547C184.025 168.547 183.452 169.121 183.452 169.828C183.452 170.535 184.025 171.109 184.732 171.109Z" fill="white"/>
<path d="M189.139 171.109C189.846 171.109 190.419 170.535 190.419 169.828C190.419 169.121 189.846 168.547 189.139 168.547C188.433 168.547 187.86 169.121 187.86 169.828C187.86 170.535 188.433 171.109 189.139 171.109Z" fill="white"/>
<path d="M307.578 137.739L303.312 133.968H307.663L307.578 137.739Z" fill="#91B4F2"/>
<path d="M284.737 134.395H305.962C309.21 134.395 311.843 131.76 311.843 128.509V125.766C311.843 122.515 309.21 119.88 305.962 119.88H284.737C281.49 119.88 278.857 122.515 278.857 125.766V128.509C278.857 131.76 281.49 134.395 284.737 134.395Z" fill="#91B4F2"/>
<path d="M299.758 128.418C300.464 128.418 301.037 127.844 301.037 127.137C301.037 126.43 300.464 125.856 299.758 125.856C299.051 125.856 298.478 126.43 298.478 127.137C298.478 127.844 299.051 128.418 299.758 128.418Z" fill="white"/>
<path d="M295.35 128.418C296.057 128.418 296.63 127.844 296.63 127.137C296.63 126.43 296.057 125.856 295.35 125.856C294.643 125.856 294.07 126.43 294.07 127.137C294.07 127.844 294.643 128.418 295.35 128.418Z" fill="white"/>
<path d="M290.942 128.418C291.649 128.418 292.222 127.844 292.222 127.137C292.222 126.43 291.649 125.856 290.942 125.856C290.236 125.856 289.663 126.43 289.663 127.137C289.663 127.844 290.236 128.418 290.942 128.418Z" fill="white"/>
<path d="M305.303 102.377C306.01 102.377 306.582 101.803 306.582 101.096C306.582 100.389 306.01 99.8152 305.303 99.8152C304.596 99.8152 304.023 100.389 304.023 101.096C304.023 101.803 304.596 102.377 305.303 102.377Z" fill="#F98B67"/>
<path d="M308.004 107.642C308.711 107.642 309.284 107.068 309.284 106.361C309.284 105.654 308.711 105.08 308.004 105.08C307.298 105.08 306.725 105.654 306.725 106.361C306.725 107.068 307.298 107.642 308.004 107.642Z" fill="#F98B67"/>
<path d="M278.572 160.294C279.672 160.294 280.563 159.402 280.563 158.302C280.563 157.201 279.672 156.309 278.572 156.309C277.473 156.309 276.582 157.201 276.582 158.302C276.582 159.402 277.473 160.294 278.572 160.294Z" fill="#F98B67"/>
<path d="M290.231 167.124C291.331 167.124 292.222 166.232 292.222 165.132C292.222 164.032 291.331 163.14 290.231 163.14C289.132 163.14 288.241 164.032 288.241 165.132C288.241 166.232 289.132 167.124 290.231 167.124Z" fill="#F98B67"/>
<path d="M111.081 169.401C112.18 169.401 113.071 168.509 113.071 167.409C113.071 166.308 112.18 165.417 111.081 165.417C109.981 165.417 109.09 166.308 109.09 167.409C109.09 168.509 109.981 169.401 111.081 169.401Z" fill="#F98B67"/>
<path d="M283.179 258.411V258.127L282.497 257.273L280.918 255.355L279.241 253.323C279.241 253.323 277.625 252.204 277.21 252.011C275.697 251.31 274.207 250.775 272.427 250.775C271.332 250.775 267.24 250.94 267.232 251.629C267.232 252.651 272.962 256.519 277.165 258.397C279.01 258.411 283.179 258.411 283.179 258.411Z" fill="#1F161E"/>
<path d="M282.312 258.411C276.479 253.92 264.573 229.424 267.627 220.345C274.128 223.661 281.26 235.094 284.624 244.748C284.805 245.375 284.95 246.013 285.059 246.657L286.424 252.919L286.754 258.42L282.312 258.411Z" fill="#FBDC8E"/>
<path d="M286.293 258.412C284.325 256.812 283.697 252.076 283.68 250.309C283.648 247.01 284.154 244.58 286.973 240.951C289.791 237.322 289.04 231.303 292.782 227.242C296.524 223.18 299.004 222.048 303.446 222.048C307.888 222.048 309.298 229.254 309.275 231.067C309.224 238.381 304.62 239.417 301.811 242.906C299.772 245.439 299.613 247.511 298.996 248.695C295.685 255.076 292.995 257.475 291.005 258.412" fill="#91B4F2"/>
<path d="M287.379 257.882C287.436 245.408 300.571 226.672 303.378 223.863" stroke="white" stroke-width="0.4" stroke-linecap="round" stroke-linejoin="round"/>
<path d="M288.087 252.213C286.634 250.628 285.312 246.134 285.511 244.967" stroke="white" stroke-width="0.4" stroke-linecap="round" stroke-linejoin="round"/>
<path d="M284.365 257.336C282.306 253.684 272.538 235.879 268.896 222.765" stroke="white" stroke-width="0.4" stroke-linecap="round" stroke-linejoin="round"/>
<path d="M291.016 258.412H297.136L292.017 277.48H278.331L273.294 258.412H291.016Z" fill="#303035"/>
<path d="M269.234 252.016C272.217 252.221 275.97 252.358 278.618 254.165" stroke="white" stroke-width="0.4" stroke-linecap="round" stroke-linejoin="round"/>
<path d="M158.388 241.645H103.397V269.562H158.388V241.645Z" fill="#303035"/>
<path d="M185.479 228.562C185.718 229.985 189.773 262.518 190.43 263.056C191.087 263.594 198.062 264.787 198.659 263.893C198.779 262.47 198.944 239.781 199.314 237.752" fill="#1F161E"/>
<path d="M107.023 221.774C104.21 220.388 110.074 247.864 125.507 247.864C140.939 247.864 166.916 224.336 171.122 224.336C180.406 224.336 202.385 242.579 204.108 242.579C205.428 241.258 208.067 238.947 208.067 238.025C208.067 237.103 187.024 202.449 171.278 202.449C165.173 202.458 113.373 224.913 107.023 221.774Z" fill="#06369A"/>
<path d="M115.707 222.241C118.793 221.541 122.631 219.728 126.03 217.875C116.785 220.9 109.209 222.856 107.023 221.774C105.533 221.04 106.477 228.394 109.98 235.478C109.346 234.109 108.442 223.903 115.707 222.241Z" fill="#1F161E"/>
<path d="M122.509 174.04C124.94 174.106 137.598 173.733 141.067 177.04C143.64 179.493 151.642 200.591 152.877 207.999C147.502 210.734 108.737 229.31 96.7398 221.142C96.4753 214.796 97.7066 189.565 105.552 176.334C108.422 174.421 120.172 173.98 122.509 174.04Z" fill="#91B4F2"/>
<path d="M127.44 168.003H120.047V175.955C120.047 177.948 127.44 177.93 127.44 175.955V168.003Z" fill="#F8CDBA"/>
<path d="M120.047 172.805C120.047 171.923 122.489 169.705 123.999 169.785C124.036 168.803 120.55 167.392 120.55 167.392L120.047 168.749V172.805Z" fill="#1F161E"/>
<path d="M135.184 168.004C135.35 167.234 135.434 166.449 135.434 165.661C135.434 159.793 130.853 155.034 125.197 155.034C119.541 155.034 114.959 159.793 114.959 165.661C114.96 166.449 115.044 167.234 115.21 168.004H135.184Z" fill="#1F161E"/>
<path d="M132.485 160.84C131.231 160.649 129.98 159.662 129.107 159.016C124.13 162.664 120.942 162.713 120.598 162.713C120.254 162.713 118.852 164.728 118.207 164.955L118.15 164.921C118.342 165.981 118.752 166.99 119.354 167.883C119.957 168.776 120.738 169.534 121.649 170.109C122.559 170.683 123.58 171.062 124.644 171.221C125.709 171.38 126.795 171.315 127.834 171.031C128.873 170.748 129.841 170.251 130.677 169.572C131.514 168.894 132.2 168.048 132.692 167.09C133.185 166.132 133.473 165.082 133.538 164.006C133.603 162.931 133.444 161.853 133.071 160.843C132.876 160.866 132.679 160.865 132.485 160.84V160.84Z" fill="#F8CDBA"/>
<path d="M119.652 156.358C121.319 156.358 122.672 155.004 122.672 153.335C122.672 151.666 121.319 150.312 119.652 150.312C117.984 150.312 116.632 151.666 116.632 153.335C116.632 155.004 117.984 156.358 119.652 156.358Z" fill="#1F161E"/>
<path d="M120.996 162.551C120.67 162.566 120.362 162.707 120.137 162.943C119.911 163.18 119.785 163.494 119.785 163.821C119.785 164.148 119.911 164.463 120.137 164.699C120.362 164.936 120.67 165.077 120.996 165.092" stroke="#1F161E" stroke-miterlimit="10" stroke-linecap="round"/>
<path d="M130.676 162.713C131.049 163.211 132.007 164.084 130.676 165.009" stroke="#1F161E" stroke-miterlimit="10" stroke-linecap="round"/>
<path d="M126.641 165.676C126.641 166.048 126.8 166.939 127.599 167.17" stroke="#1F161E" stroke-miterlimit="10" stroke-linecap="round"/>
<path d="M124.164 165.764C124.811 165.764 125.336 165.491 125.336 165.155C125.336 164.818 124.811 164.546 124.164 164.546C123.517 164.546 122.993 164.818 122.993 165.155C122.993 165.491 123.517 165.764 124.164 165.764Z" fill="#FA9E9F"/>
<path d="M132.875 165.764C133.522 165.764 134.046 165.491 134.046 165.155C134.046 164.818 133.522 164.546 132.875 164.546C132.228 164.546 131.703 164.818 131.703 165.155C131.703 165.491 132.228 165.764 132.875 165.764Z" fill="#FA9E9F"/>
<path d="M140.8 196.032L148.702 193.997C149.461 195.289 153.158 207.985 153.158 207.985L140.959 213.131C141.118 210.726 141.599 199.711 140.8 196.032Z" fill="#F8CDBA"/>
<path d="M113.091 194.042C113.091 194.998 112.286 198.638 111.811 200.349" stroke="#1F161E" stroke-miterlimit="10" stroke-linecap="round"/>
<path d="M140.8 196.032C140.609 194.526 139.494 186.042 137.598 181.576" stroke="#1F161E" stroke-miterlimit="10" stroke-linecap="round"/>
<path d="M140.8 196.032L148.702 193.997C149.461 195.289 153.158 207.985 153.158 207.985L140.959 213.131C141.118 210.726 141.599 199.711 140.8 196.032Z" fill="#F8CDBA"/>
<path d="M204.344 241.907C204.521 242.192 206.875 245.083 207.708 245.115C208.542 245.146 213.6 241.716 213.379 240.979C213.157 240.242 209.983 240.723 209.437 240.464C208.891 240.205 207.671 238.987 207.472 238.446" fill="#1F161E"/>
<path d="M191.903 263.358C191.844 263.674 191.522 267.399 192.1 268.003C192.677 268.606 198.697 269.653 199.047 268.967C199.396 268.281 196.772 266.423 196.57 265.859C196.368 265.296 196.325 263.583 196.57 263.048" fill="#1F161E"/>
<path d="M182.465 208.782H155.686L162.062 191.874H188.84L182.465 208.782Z" fill="#969696"/>
<path d="M160.151 208.144H133.372V208.782H160.151V208.144Z" fill="#969696"/>
<path d="M111.811 200.349C111.297 202.273 108.797 210.526 109.815 211.949C110.833 213.372 136.329 210.148 143.151 208.022C144.889 207.453 146.177 205.961 146.948 205.768C147.937 205.6 148.954 205.804 149.802 206.341C150.65 206.878 151.27 207.71 151.543 208.676C148.819 209.997 109.485 230.096 96.74 221.151C94.3314 219.423 98.5571 198.362 98.7504 197.301C100.903 197.56 111.811 200.349 111.811 200.349Z" fill="#F8CDBA"/>
<path d="M141.164 208.534C141.931 208.352 142.603 208.173 143.154 208.002C144.892 207.433 146.18 205.941 146.951 205.748C147.94 205.58 148.957 205.784 149.805 206.321C150.653 206.858 151.273 207.69 151.546 208.656" stroke="#1F161E" stroke-miterlimit="10" stroke-linecap="round"/>
<path d="M4.01217 -85.2446C33.4983 -85.2446 43.4526 -70.579 43.4526 -60.3874C43.4526 -39.1329 37.1787 -43.8727 37.1787 -21.9008C37.1787 1.70237 78.4158 31.5172 78.4158 72.294C78.4158 128.034 12.0756 136.206 4.01217 136.206C-37.8191 136.206 -53.3663 102.444 -53.3663 81.9648C-53.3663 57.7081 -24.2279 31.7138 -24.2279 8.32317C-24.2279 -8.78674 -31.8494 -15.4341 -31.8494 -41.9598C-31.8204 -68.613 -10.8106 -85.2446 4.01217 -85.2446Z" fill="#91B4F2" fill-opacity="0.46"/>
</svg>
