<svg width="132" height="44" viewBox="0 0 132 44" fill="none" xmlns="http://www.w3.org/2000/svg">
<path d="M0 29V9.02124C0 5.09406 4.31976 2.69985 7.65 4.78125L13.65 8.53125C15.1119 9.44494 16 11.0473 16 12.7712V29C16 31.7614 13.7614 34 11 34H5C2.23858 34 0 31.7614 0 29Z" fill="#06369A"/>
<path d="M18 31.3745V18.1835C18 15.993 19.4259 14.0575 21.518 13.4082L26.018 12.0117C29.2357 11.0131 32.5 13.4179 32.5 16.787V34.478C32.5 38.5072 27.9782 40.8815 24.6613 38.594L20.1613 35.4906C18.8081 34.5573 18 33.0184 18 31.3745Z" fill="#06369A"/>
<path d="M43.2 18.8C43.2 17.4667 43.64 16.44 44.52 15.72C45.4 15 46.7067 14.64 48.44 14.64V17C48.04 17.4267 47.7067 17.88 47.44 18.36L47.72 18.52C48.52 17.2933 49.5333 16.3467 50.76 15.68C52.0133 14.9867 53.4 14.64 54.92 14.64C56.2533 14.64 57.4267 14.9467 58.44 15.56C59.48 16.1733 60.2933 17.0267 60.88 18.12C61.4667 19.1867 61.76 20.3867 61.76 21.72V32.16C61.76 33.3067 61.3067 34.1333 60.4 34.64C59.4933 35.12 58.12 35.36 56.28 35.36V22.56C56.28 21.6533 55.9867 20.8933 55.4 20.28C54.84 19.6667 54.04 19.36 53 19.36C51.72 19.36 50.68 19.7733 49.88 20.6C49.08 21.4267 48.68 22.4667 48.68 23.72V32.16C48.68 33.3067 48.2267 34.1333 47.32 34.64C46.44 35.12 45.0667 35.36 43.2 35.36V18.8ZM69.5334 13.12C68.5201 13.12 67.6668 12.8267 66.9734 12.24C66.3068 11.6267 65.9734 10.84 65.9734 9.88C65.9734 8.92 66.3068 8.14667 66.9734 7.56C67.6668 6.94666 68.5201 6.64 69.5334 6.64C70.5468 6.64 71.3868 6.94666 72.0534 7.56C72.7468 8.14667 73.0934 8.92 73.0934 9.88C73.0934 10.84 72.7468 11.6267 72.0534 12.24C71.3868 12.8267 70.5468 13.12 69.5334 13.12ZM66.7734 17.84C66.7734 16.6933 67.2268 15.88 68.1334 15.4C69.0401 14.8933 70.4134 14.64 72.2534 14.64V32.16C72.2534 33.3067 71.8001 34.1333 70.8934 34.64C69.9868 35.12 68.6134 35.36 66.7734 35.36V17.84ZM84.8569 35.36C83.4435 35.36 82.1635 35.0533 81.0169 34.44C79.8702 33.8 78.9635 32.9333 78.2969 31.84C77.6302 30.72 77.2969 29.4667 77.2969 28.08V21.92C77.2969 20.5333 77.6435 19.2933 78.3369 18.2C79.0569 17.08 80.0435 16.2133 81.2969 15.6C82.5502 14.96 83.9369 14.64 85.4569 14.64C86.3635 14.64 87.3369 14.8267 88.3769 15.2C89.4435 15.5733 90.3235 16.0933 91.0169 16.76L91.1769 16.56C91.0435 16.3467 90.7502 16.08 90.2969 15.76V10.24C90.2969 9.12 90.7502 8.24 91.6569 7.6C92.5902 6.96 93.9902 6.64 95.8569 6.64V31.72C95.8569 32.76 95.4435 33.6267 94.6169 34.32C93.7902 35.0133 92.5235 35.36 90.8169 35.36V33.2C91.1369 32.8 91.3902 32.44 91.5769 32.12L91.3769 31.96C90.5235 33.1067 89.6035 33.96 88.6169 34.52C87.6569 35.08 86.4035 35.36 84.8569 35.36ZM86.5769 30.64C87.6969 30.64 88.6035 30.3867 89.2969 29.88C90.0169 29.3467 90.3769 28.68 90.3769 27.88V22.12C90.3769 21.3467 90.0169 20.6933 89.2969 20.16C88.6035 19.6267 87.6969 19.36 86.5769 19.36C85.3502 19.36 84.4035 19.6133 83.7369 20.12C83.0969 20.6267 82.7769 21.3467 82.7769 22.28V27.68C82.7769 28.64 83.0969 29.3733 83.7369 29.88C84.4035 30.3867 85.3502 30.64 86.5769 30.64ZM108.71 35.36C105.99 35.36 103.844 34.9067 102.27 34C100.697 33.0667 99.9103 31.8267 99.9103 30.28C99.9103 29.5867 100.204 29 100.79 28.52C101.404 28.04 102.377 27.8 103.71 27.8C103.924 28.8667 104.457 29.7067 105.31 30.32C106.164 30.9067 107.164 31.2 108.31 31.2C109.644 31.2 110.67 31.04 111.39 30.72C112.137 30.4 112.51 29.9333 112.51 29.32C112.51 28.7867 112.217 28.32 111.63 27.92C111.044 27.52 109.87 27.1067 108.11 26.68C106.057 26.2 104.457 25.72 103.31 25.24C102.19 24.7333 101.364 24.1067 100.83 23.36C100.297 22.6133 100.03 21.6267 100.03 20.4C100.03 18.6667 100.75 17.28 102.19 16.24C103.657 15.1733 105.697 14.64 108.31 14.64C110.87 14.64 112.95 15.08 114.55 15.96C116.15 16.84 116.95 18.0133 116.95 19.48C116.95 20.2267 116.67 20.7733 116.11 21.12C115.55 21.44 114.617 21.6133 113.31 21.64C112.964 20.6267 112.43 19.88 111.71 19.4C111.017 18.8933 110.017 18.64 108.71 18.64C107.777 18.64 106.95 18.8 106.23 19.12C105.51 19.44 105.15 19.8267 105.15 20.28C105.15 20.7867 105.444 21.1867 106.03 21.48C106.644 21.7733 107.657 22.0667 109.07 22.36C112.137 23.0267 114.337 23.9067 115.67 25C117.03 26.0933 117.71 27.5733 117.71 29.44C117.71 30.5867 117.35 31.6133 116.63 32.52C115.91 33.4267 114.87 34.1333 113.51 34.64C112.15 35.12 110.55 35.36 108.71 35.36Z" fill="#06369A"/>
</svg>
